# xmcd CD database file
#
# Track frame offsets:
#	150
#	30775
#	62090
#	91045
#	120125
#	151100
#
# Disc length: 2409 seconds
#
# Revision: 0
# Processed by: cddbd v1.5.1PL0 Copyright (c) Steve Scherf et al.
# Submitted via: CDex 1.51
#
DISCID=2e096706
DTITLE=JACKIE McLEAN - THE JACKIE McALEAN QUINTET
DYEAR=1955
DGENRE=Jazz
TTITLE0=IT'S YOU OR NO NONE
TTITLE1=BLUE DOLL
TTITLE2=LITTLE MELONAE
TTITLE3=THE WAY YOU LOOK TONIGHT
TTITLE4=MOOD MALODY
TTITLE5=LOVER MAN
EXTD=YEAR: 1955
EXTT0=
EXTT1=
EXTT2=
EXTT3=
EXTT4=
EXTT5=
PLAYORDER=
